<mxfile host="Electron" agent="Mozilla/5.0 (Macintosh; Intel Mac OS X 10_15_7) AppleWebKit/537.36 (KHTML, like Gecko) draw.io/24.7.17 Chrome/128.0.6613.36 Electron/32.0.1 Safari/537.36" version="24.7.17">
  <diagram name="Page-1" id="Mnux9CglpgqXPLvqKujI">
    <mxGraphModel dx="1026" dy="772" grid="1" gridSize="10" guides="1" tooltips="1" connect="1" arrows="1" fold="1" page="1" pageScale="1" pageWidth="850" pageHeight="1100" math="0" shadow="0">
      <root>
        <mxCell id="0" />
        <mxCell id="1" parent="0" />
        <mxCell id="x1avso-UNQqt8Qe4Jz3z-27" value="" style="rounded=0;whiteSpace=wrap;html=1;" vertex="1" parent="1">
          <mxGeometry x="60" y="60" width="700" height="340" as="geometry" />
        </mxCell>
        <mxCell id="x1avso-UNQqt8Qe4Jz3z-4" value="" style="edgeStyle=orthogonalEdgeStyle;rounded=0;orthogonalLoop=1;jettySize=auto;html=1;strokeWidth=3;exitX=1;exitY=0.25;exitDx=0;exitDy=0;entryX=0;entryY=0.25;entryDx=0;entryDy=0;" edge="1" parent="1" source="x1avso-UNQqt8Qe4Jz3z-1" target="x1avso-UNQqt8Qe4Jz3z-3">
          <mxGeometry relative="1" as="geometry" />
        </mxCell>
        <mxCell id="x1avso-UNQqt8Qe4Jz3z-1" value="Frontend" style="rounded=0;whiteSpace=wrap;html=1;fontSize=16;fillColor=#dae8fc;strokeColor=#6c8ebf;" vertex="1" parent="1">
          <mxGeometry x="80" y="260" width="120" height="80" as="geometry" />
        </mxCell>
        <mxCell id="x1avso-UNQqt8Qe4Jz3z-21" style="edgeStyle=orthogonalEdgeStyle;rounded=0;orthogonalLoop=1;jettySize=auto;html=1;entryX=1;entryY=0.75;entryDx=0;entryDy=0;exitX=0;exitY=0.75;exitDx=0;exitDy=0;strokeWidth=3;" edge="1" parent="1" source="x1avso-UNQqt8Qe4Jz3z-3" target="x1avso-UNQqt8Qe4Jz3z-1">
          <mxGeometry relative="1" as="geometry" />
        </mxCell>
        <mxCell id="x1avso-UNQqt8Qe4Jz3z-3" value="Backend" style="rounded=0;whiteSpace=wrap;html=1;fontSize=16;fillColor=#dae8fc;strokeColor=#6c8ebf;" vertex="1" parent="1">
          <mxGeometry x="350" y="260" width="120" height="80" as="geometry" />
        </mxCell>
        <mxCell id="x1avso-UNQqt8Qe4Jz3z-10" value="Ollama" style="rounded=0;whiteSpace=wrap;html=1;fontSize=16;fillColor=#f5f5f5;fontColor=#333333;strokeColor=#666666;" vertex="1" parent="1">
          <mxGeometry x="350" y="80" width="120" height="60" as="geometry" />
        </mxCell>
        <mxCell id="x1avso-UNQqt8Qe4Jz3z-11" value="MongoDB" style="shape=cylinder3;whiteSpace=wrap;html=1;boundedLbl=1;backgroundOutline=1;size=15;fontSize=16;fillColor=#d5e8d4;strokeColor=#82b366;" vertex="1" parent="1">
          <mxGeometry x="630" y="239" width="100" height="110" as="geometry" />
        </mxCell>
        <mxCell id="x1avso-UNQqt8Qe4Jz3z-14" value="" style="edgeStyle=orthogonalEdgeStyle;rounded=0;orthogonalLoop=1;jettySize=auto;html=1;strokeWidth=3;entryX=0.25;entryY=1;entryDx=0;entryDy=0;exitX=0.25;exitY=0;exitDx=0;exitDy=0;" edge="1" parent="1" source="x1avso-UNQqt8Qe4Jz3z-3" target="x1avso-UNQqt8Qe4Jz3z-10">
          <mxGeometry relative="1" as="geometry">
            <mxPoint x="393" y="260" as="sourcePoint" />
            <mxPoint x="360" y="300" as="targetPoint" />
          </mxGeometry>
        </mxCell>
        <mxCell id="x1avso-UNQqt8Qe4Jz3z-15" value="" style="edgeStyle=orthogonalEdgeStyle;rounded=0;orthogonalLoop=1;jettySize=auto;html=1;strokeWidth=3;entryX=0.75;entryY=0;entryDx=0;entryDy=0;exitX=0.75;exitY=1;exitDx=0;exitDy=0;" edge="1" parent="1" source="x1avso-UNQqt8Qe4Jz3z-10" target="x1avso-UNQqt8Qe4Jz3z-3">
          <mxGeometry relative="1" as="geometry">
            <mxPoint x="403" y="270" as="sourcePoint" />
            <mxPoint x="403" y="146" as="targetPoint" />
            <Array as="points">
              <mxPoint x="440" y="260" />
            </Array>
          </mxGeometry>
        </mxCell>
        <mxCell id="x1avso-UNQqt8Qe4Jz3z-18" style="edgeStyle=orthogonalEdgeStyle;rounded=0;orthogonalLoop=1;jettySize=auto;html=1;strokeWidth=3;entryX=0.983;entryY=0.675;entryDx=0;entryDy=0;exitX=0;exitY=0;exitDx=0;exitDy=75;exitPerimeter=0;entryPerimeter=0;" edge="1" parent="1" source="x1avso-UNQqt8Qe4Jz3z-11" target="x1avso-UNQqt8Qe4Jz3z-3">
          <mxGeometry relative="1" as="geometry">
            <mxPoint x="470" y="500" as="sourcePoint" />
            <mxPoint x="630" y="500" as="targetPoint" />
          </mxGeometry>
        </mxCell>
        <mxCell id="x1avso-UNQqt8Qe4Jz3z-19" value="1" style="ellipse;whiteSpace=wrap;html=1;aspect=fixed;fontSize=16;fillColor=#f8cecc;strokeColor=#b85450;" vertex="1" parent="1">
          <mxGeometry x="250" y="230" width="40" height="40" as="geometry" />
        </mxCell>
        <mxCell id="x1avso-UNQqt8Qe4Jz3z-20" value="2" style="ellipse;whiteSpace=wrap;html=1;aspect=fixed;fontSize=16;fillColor=#f8cecc;strokeColor=#b85450;" vertex="1" parent="1">
          <mxGeometry x="330" y="180" width="40" height="40" as="geometry" />
        </mxCell>
        <mxCell id="x1avso-UNQqt8Qe4Jz3z-22" value="" style="edgeStyle=orthogonalEdgeStyle;rounded=0;orthogonalLoop=1;jettySize=auto;html=1;strokeWidth=3;exitX=1;exitY=0.25;exitDx=0;exitDy=0;entryX=0.1;entryY=0.373;entryDx=0;entryDy=0;entryPerimeter=0;" edge="1" parent="1" target="x1avso-UNQqt8Qe4Jz3z-11">
          <mxGeometry relative="1" as="geometry">
            <mxPoint x="471" y="280" as="sourcePoint" />
            <mxPoint x="621" y="280" as="targetPoint" />
          </mxGeometry>
        </mxCell>
        <mxCell id="x1avso-UNQqt8Qe4Jz3z-23" value="3" style="ellipse;whiteSpace=wrap;html=1;aspect=fixed;fontSize=16;fillColor=#f8cecc;strokeColor=#b85450;" vertex="1" parent="1">
          <mxGeometry x="460" y="180" width="40" height="40" as="geometry" />
        </mxCell>
        <mxCell id="x1avso-UNQqt8Qe4Jz3z-24" value="4" style="ellipse;whiteSpace=wrap;html=1;aspect=fixed;fontSize=16;fillColor=#f8cecc;strokeColor=#b85450;" vertex="1" parent="1">
          <mxGeometry x="530" y="230" width="40" height="40" as="geometry" />
        </mxCell>
        <mxCell id="x1avso-UNQqt8Qe4Jz3z-25" value="5" style="ellipse;whiteSpace=wrap;html=1;aspect=fixed;fontSize=16;fillColor=#f8cecc;strokeColor=#b85450;" vertex="1" parent="1">
          <mxGeometry x="530" y="330" width="40" height="40" as="geometry" />
        </mxCell>
        <mxCell id="x1avso-UNQqt8Qe4Jz3z-26" value="6" style="ellipse;whiteSpace=wrap;html=1;aspect=fixed;fontSize=16;fillColor=#f8cecc;strokeColor=#b85450;" vertex="1" parent="1">
          <mxGeometry x="250" y="330" width="40" height="40" as="geometry" />
        </mxCell>
      </root>
    </mxGraphModel>
  </diagram>
</mxfile>
